<?xml version="1.0" encoding="utf-8" standalone="no"?>
<!DOCTYPE svg PUBLIC "-//W3C//DTD SVG 1.1//EN"
  "http://www.w3.org/Graphics/SVG/1.1/DTD/svg11.dtd">
<svg xmlns:xlink="http://www.w3.org/1999/xlink" width="274.499687pt" height="270.687813pt" viewBox="0 0 274.499687 270.687813" xmlns="http://www.w3.org/2000/svg" version="1.1">
 <metadata>
  <rdf:RDF xmlns:dc="http://purl.org/dc/elements/1.1/" xmlns:cc="http://creativecommons.org/ns#" xmlns:rdf="http://www.w3.org/1999/02/22-rdf-syntax-ns#">
   <cc:Work>
    <dc:type rdf:resource="http://purl.org/dc/dcmitype/StillImage"/>
    <dc:date>2024-02-22T16:24:41.615196</dc:date>
    <dc:format>image/svg+xml</dc:format>
    <dc:creator>
     <cc:Agent>
      <dc:title>Matplotlib v3.7.1, https://matplotlib.org/</dc:title>
     </cc:Agent>
    </dc:creator>
   </cc:Work>
  </rdf:RDF>
 </metadata>
 <defs>
  <style type="text/css">*{stroke-linejoin: round; stroke-linecap: butt}</style>
 </defs>
 <g id="figure_1">
  <g id="patch_1">
   <path d="M 0 270.687813 
L 274.499687 270.687813 
L 274.499687 0 
L 0 0 
L 0 270.687813 
z
" style="fill: none"/>
  </g>
  <g id="axes_1">
   <g id="patch_2">
    <path d="M 44.099688 228.96 
L 267.299688 228.96 
L 267.299688 7.2 
L 44.099688 7.2 
L 44.099688 228.96 
z
" style="fill: none"/>
   </g>
   <g id="matplotlib.axis_1">
    <g id="xtick_1">
     <g id="line2d_1">
      <path d="M 54.245142 228.96 
L 54.245142 7.2 
" clip-path="url(#p678232886d)" style="fill: none; stroke: #cccccc; stroke-width: 0.8; stroke-linecap: round"/>
     </g>
     <g id="text_1">
      <text style="fill: #262626; font: 12px 'Arial', 'DejaVu Sans', 'Liberation Sans', 'Bitstream Vera Sans', sans-serif; text-anchor: middle" x="54.245142" y="242.299375" transform="rotate(-0 54.245142 242.299375)">0</text>
     </g>
    </g>
    <g id="xtick_2">
     <g id="line2d_2">
      <path d="M 94.82696 228.96 
L 94.82696 7.2 
" clip-path="url(#p678232886d)" style="fill: none; stroke: #cccccc; stroke-width: 0.8; stroke-linecap: round"/>
     </g>
     <g id="text_2">
      <text style="fill: #262626; font: 12px 'Arial', 'DejaVu Sans', 'Liberation Sans', 'Bitstream Vera Sans', sans-serif; text-anchor: middle" x="94.82696" y="242.299375" transform="rotate(-0 94.82696 242.299375)">1</text>
     </g>
    </g>
    <g id="xtick_3">
     <g id="line2d_3">
      <path d="M 135.408778 228.96 
L 135.408778 7.2 
" clip-path="url(#p678232886d)" style="fill: none; stroke: #cccccc; stroke-width: 0.8; stroke-linecap: round"/>
     </g>
     <g id="text_3">
      <text style="fill: #262626; font: 12px 'Arial', 'DejaVu Sans', 'Liberation Sans', 'Bitstream Vera Sans', sans-serif; text-anchor: middle" x="135.408778" y="242.299375" transform="rotate(-0 135.408778 242.299375)">2</text>
     </g>
    </g>
    <g id="xtick_4">
     <g id="line2d_4">
      <path d="M 175.990597 228.96 
L 175.990597 7.2 
" clip-path="url(#p678232886d)" style="fill: none; stroke: #cccccc; stroke-width: 0.8; stroke-linecap: round"/>
     </g>
     <g id="text_4">
      <text style="fill: #262626; font: 12px 'Arial', 'DejaVu Sans', 'Liberation Sans', 'Bitstream Vera Sans', sans-serif; text-anchor: middle" x="175.990597" y="242.299375" transform="rotate(-0 175.990597 242.299375)">3</text>
     </g>
    </g>
    <g id="xtick_5">
     <g id="line2d_5">
      <path d="M 216.572415 228.96 
L 216.572415 7.2 
" clip-path="url(#p678232886d)" style="fill: none; stroke: #cccccc; stroke-width: 0.8; stroke-linecap: round"/>
     </g>
     <g id="text_5">
      <text style="fill: #262626; font: 12px 'Arial', 'DejaVu Sans', 'Liberation Sans', 'Bitstream Vera Sans', sans-serif; text-anchor: middle" x="216.572415" y="242.299375" transform="rotate(-0 216.572415 242.299375)">4</text>
     </g>
    </g>
    <g id="xtick_6">
     <g id="line2d_6">
      <path d="M 257.154233 228.96 
L 257.154233 7.2 
" clip-path="url(#p678232886d)" style="fill: none; stroke: #cccccc; stroke-width: 0.8; stroke-linecap: round"/>
     </g>
     <g id="text_6">
      <text style="fill: #262626; font: 12px 'Arial', 'DejaVu Sans', 'Liberation Sans', 'Bitstream Vera Sans', sans-serif; text-anchor: middle" x="257.154233" y="242.299375" transform="rotate(-0 257.154233 242.299375)">5</text>
     </g>
    </g>
    <g id="text_7">
     <text style="fill: #262626; font: 14px 'Arial', 'DejaVu Sans', 'Liberation Sans', 'Bitstream Vera Sans', sans-serif; text-anchor: middle" x="155.699687" y="260.705312" transform="rotate(-0 155.699687 260.705312)">Number of features</text>
    </g>
   </g>
   <g id="matplotlib.axis_2">
    <g id="ytick_1">
     <g id="line2d_7">
      <path d="M 44.099688 226.86544 
L 267.299688 226.86544 
" clip-path="url(#p678232886d)" style="fill: none; stroke: #cccccc; stroke-width: 0.8; stroke-linecap: round"/>
     </g>
     <g id="text_8">
      <text style="fill: #262626; font: 12px 'Arial', 'DejaVu Sans', 'Liberation Sans', 'Bitstream Vera Sans', sans-serif; text-anchor: end" x="39.349688" y="231.160128" transform="rotate(-0 39.349688 231.160128)">20</text>
     </g>
    </g>
    <g id="ytick_2">
     <g id="line2d_8">
      <path d="M 44.099688 194.209707 
L 267.299688 194.209707 
" clip-path="url(#p678232886d)" style="fill: none; stroke: #cccccc; stroke-width: 0.8; stroke-linecap: round"/>
     </g>
     <g id="text_9">
      <text style="fill: #262626; font: 12px 'Arial', 'DejaVu Sans', 'Liberation Sans', 'Bitstream Vera Sans', sans-serif; text-anchor: end" x="39.349688" y="198.504395" transform="rotate(-0 39.349688 198.504395)">30</text>
     </g>
    </g>
    <g id="ytick_3">
     <g id="line2d_9">
      <path d="M 44.099688 161.553975 
L 267.299688 161.553975 
" clip-path="url(#p678232886d)" style="fill: none; stroke: #cccccc; stroke-width: 0.8; stroke-linecap: round"/>
     </g>
     <g id="text_10">
      <text style="fill: #262626; font: 12px 'Arial', 'DejaVu Sans', 'Liberation Sans', 'Bitstream Vera Sans', sans-serif; text-anchor: end" x="39.349688" y="165.848662" transform="rotate(-0 39.349688 165.848662)">40</text>
     </g>
    </g>
    <g id="ytick_4">
     <g id="line2d_10">
      <path d="M 44.099688 128.898242 
L 267.299688 128.898242 
" clip-path="url(#p678232886d)" style="fill: none; stroke: #cccccc; stroke-width: 0.8; stroke-linecap: round"/>
     </g>
     <g id="text_11">
      <text style="fill: #262626; font: 12px 'Arial', 'DejaVu Sans', 'Liberation Sans', 'Bitstream Vera Sans', sans-serif; text-anchor: end" x="39.349688" y="133.192929" transform="rotate(-0 39.349688 133.192929)">50</text>
     </g>
    </g>
    <g id="ytick_5">
     <g id="line2d_11">
      <path d="M 44.099688 96.242509 
L 267.299688 96.242509 
" clip-path="url(#p678232886d)" style="fill: none; stroke: #cccccc; stroke-width: 0.8; stroke-linecap: round"/>
     </g>
     <g id="text_12">
      <text style="fill: #262626; font: 12px 'Arial', 'DejaVu Sans', 'Liberation Sans', 'Bitstream Vera Sans', sans-serif; text-anchor: end" x="39.349688" y="100.537196" transform="rotate(-0 39.349688 100.537196)">60</text>
     </g>
    </g>
    <g id="ytick_6">
     <g id="line2d_12">
      <path d="M 44.099688 63.586776 
L 267.299688 63.586776 
" clip-path="url(#p678232886d)" style="fill: none; stroke: #cccccc; stroke-width: 0.8; stroke-linecap: round"/>
     </g>
     <g id="text_13">
      <text style="fill: #262626; font: 12px 'Arial', 'DejaVu Sans', 'Liberation Sans', 'Bitstream Vera Sans', sans-serif; text-anchor: end" x="39.349688" y="67.881464" transform="rotate(-0 39.349688 67.881464)">70</text>
     </g>
    </g>
    <g id="ytick_7">
     <g id="line2d_13">
      <path d="M 44.099688 30.931043 
L 267.299688 30.931043 
" clip-path="url(#p678232886d)" style="fill: none; stroke: #cccccc; stroke-width: 0.8; stroke-linecap: round"/>
     </g>
     <g id="text_14">
      <text style="fill: #262626; font: 12px 'Arial', 'DejaVu Sans', 'Liberation Sans', 'Bitstream Vera Sans', sans-serif; text-anchor: end" x="39.349688" y="35.225731" transform="rotate(-0 39.349688 35.225731)">80</text>
     </g>
    </g>
    <g id="text_15">
     <text style="fill: #262626; font: 14px 'Arial', 'DejaVu Sans', 'Liberation Sans', 'Bitstream Vera Sans', sans-serif; text-anchor: middle" x="17.220938" y="118.08" transform="rotate(-90 17.220938 118.08)">Win %</text>
    </g>
   </g>
   <g id="PathCollection_1">
    <defs>
     <path id="m8c145e666c" d="M 0 3 
C 0.795609 3 1.55874 2.683901 2.12132 2.12132 
C 2.683901 1.55874 3 0.795609 3 0 
C 3 -0.795609 2.683901 -1.55874 2.12132 -2.12132 
C 1.55874 -2.683901 0.795609 -3 0 -3 
C -0.795609 -3 -1.55874 -2.683901 -2.12132 -2.12132 
C -2.683901 -1.55874 -3 -0.795609 -3 0 
C -3 0.795609 -2.683901 1.55874 -2.12132 2.12132 
C -1.55874 2.683901 -0.795609 3 0 3 
z
" style="stroke: #1f77b4"/>
    </defs>
    <g clip-path="url(#p678232886d)">
     <use xlink:href="#m8c145e666c" x="216.572415" y="73.47583" style="fill: #1f77b4; stroke: #1f77b4"/>
     <use xlink:href="#m8c145e666c" x="175.990597" y="71.414564" style="fill: #1f77b4; stroke: #1f77b4"/>
     <use xlink:href="#m8c145e666c" x="54.245142" y="186.825965" style="fill: #1f77b4; stroke: #1f77b4"/>
     <use xlink:href="#m8c145e666c" x="54.245142" y="141.580079" style="fill: #1f77b4; stroke: #1f77b4"/>
     <use xlink:href="#m8c145e666c" x="94.82696" y="121.252016" style="fill: #1f77b4; stroke: #1f77b4"/>
     <use xlink:href="#m8c145e666c" x="175.990597" y="127.763305" style="fill: #1f77b4; stroke: #1f77b4"/>
     <use xlink:href="#m8c145e666c" x="257.154233" y="106.318282" style="fill: #1f77b4; stroke: #1f77b4"/>
     <use xlink:href="#m8c145e666c" x="135.408778" y="215.704285" style="fill: #1f77b4; stroke: #1f77b4"/>
     <use xlink:href="#m8c145e666c" x="94.82696" y="168.049321" style="fill: #1f77b4; stroke: #1f77b4"/>
     <use xlink:href="#m8c145e666c" x="135.408778" y="179.456889" style="fill: #1f77b4; stroke: #1f77b4"/>
     <use xlink:href="#m8c145e666c" x="175.990597" y="164.901066" style="fill: #1f77b4; stroke: #1f77b4"/>
     <use xlink:href="#m8c145e666c" x="135.408778" y="174.558702" style="fill: #1f77b4; stroke: #1f77b4"/>
     <use xlink:href="#m8c145e666c" x="135.408778" y="212.08876" style="fill: #1f77b4; stroke: #1f77b4"/>
     <use xlink:href="#m8c145e666c" x="135.408778" y="154.134344" style="fill: #1f77b4; stroke: #1f77b4"/>
     <use xlink:href="#m8c145e666c" x="135.408778" y="163.315569" style="fill: #1f77b4; stroke: #1f77b4"/>
     <use xlink:href="#m8c145e666c" x="135.408778" y="151.466867" style="fill: #1f77b4; stroke: #1f77b4"/>
     <use xlink:href="#m8c145e666c" x="135.408778" y="164.213768" style="fill: #1f77b4; stroke: #1f77b4"/>
     <use xlink:href="#m8c145e666c" x="175.990597" y="139.402455" style="fill: #1f77b4; stroke: #1f77b4"/>
     <use xlink:href="#m8c145e666c" x="135.408778" y="105.648209" style="fill: #1f77b4; stroke: #1f77b4"/>
     <use xlink:href="#m8c145e666c" x="94.82696" y="180.628325" style="fill: #1f77b4; stroke: #1f77b4"/>
     <use xlink:href="#m8c145e666c" x="135.408778" y="124.285848" style="fill: #1f77b4; stroke: #1f77b4"/>
     <use xlink:href="#m8c145e666c" x="135.408778" y="154.439035" style="fill: #1f77b4; stroke: #1f77b4"/>
     <use xlink:href="#m8c145e666c" x="135.408778" y="111.344303" style="fill: #1f77b4; stroke: #1f77b4"/>
     <use xlink:href="#m8c145e666c" x="175.990597" y="88.782369" style="fill: #1f77b4; stroke: #1f77b4"/>
     <use xlink:href="#m8c145e666c" x="135.408778" y="107.703035" style="fill: #1f77b4; stroke: #1f77b4"/>
     <use xlink:href="#m8c145e666c" x="135.408778" y="98.737009" style="fill: #1f77b4; stroke: #1f77b4"/>
     <use xlink:href="#m8c145e666c" x="175.990597" y="200.324693" style="fill: #1f77b4; stroke: #1f77b4"/>
     <use xlink:href="#m8c145e666c" x="135.408778" y="105.323252" style="fill: #1f77b4; stroke: #1f77b4"/>
     <use xlink:href="#m8c145e666c" x="175.990597" y="41.483417" style="fill: #1f77b4; stroke: #1f77b4"/>
     <use xlink:href="#m8c145e666c" x="94.82696" y="157.016274" style="fill: #1f77b4; stroke: #1f77b4"/>
     <use xlink:href="#m8c145e666c" x="135.408778" y="164.358919" style="fill: #1f77b4; stroke: #1f77b4"/>
     <use xlink:href="#m8c145e666c" x="94.82696" y="119.390878" style="fill: #1f77b4; stroke: #1f77b4"/>
     <use xlink:href="#m8c145e666c" x="175.990597" y="58.802548" style="fill: #1f77b4; stroke: #1f77b4"/>
     <use xlink:href="#m8c145e666c" x="135.408778" y="74.77272" style="fill: #1f77b4; stroke: #1f77b4"/>
     <use xlink:href="#m8c145e666c" x="135.408778" y="140.616046" style="fill: #1f77b4; stroke: #1f77b4"/>
     <use xlink:href="#m8c145e666c" x="175.990597" y="112.361144" style="fill: #1f77b4; stroke: #1f77b4"/>
     <use xlink:href="#m8c145e666c" x="216.572415" y="53.464949" style="fill: #1f77b4; stroke: #1f77b4"/>
     <use xlink:href="#m8c145e666c" x="216.572415" y="93.627761" style="fill: #1f77b4; stroke: #1f77b4"/>
     <use xlink:href="#m8c145e666c" x="175.990597" y="82.026358" style="fill: #1f77b4; stroke: #1f77b4"/>
     <use xlink:href="#m8c145e666c" x="135.408778" y="135.985339" style="fill: #1f77b4; stroke: #1f77b4"/>
     <use xlink:href="#m8c145e666c" x="175.990597" y="114.116784" style="fill: #1f77b4; stroke: #1f77b4"/>
     <use xlink:href="#m8c145e666c" x="175.990597" y="111.414212" style="fill: #1f77b4; stroke: #1f77b4"/>
     <use xlink:href="#m8c145e666c" x="175.990597" y="61.184487" style="fill: #1f77b4; stroke: #1f77b4"/>
     <use xlink:href="#m8c145e666c" x="175.990597" y="75.112029" style="fill: #1f77b4; stroke: #1f77b4"/>
     <use xlink:href="#m8c145e666c" x="135.408778" y="218.88" style="fill: #1f77b4; stroke: #1f77b4"/>
     <use xlink:href="#m8c145e666c" x="135.408778" y="163.36049" style="fill: #1f77b4; stroke: #1f77b4"/>
     <use xlink:href="#m8c145e666c" x="175.990597" y="140.991976" style="fill: #1f77b4; stroke: #1f77b4"/>
     <use xlink:href="#m8c145e666c" x="175.990597" y="65.272504" style="fill: #1f77b4; stroke: #1f77b4"/>
     <use xlink:href="#m8c145e666c" x="94.82696" y="168.991853" style="fill: #1f77b4; stroke: #1f77b4"/>
     <use xlink:href="#m8c145e666c" x="175.990597" y="157.421356" style="fill: #1f77b4; stroke: #1f77b4"/>
     <use xlink:href="#m8c145e666c" x="135.408778" y="170.21257" style="fill: #1f77b4; stroke: #1f77b4"/>
     <use xlink:href="#m8c145e666c" x="135.408778" y="24.836644" style="fill: #1f77b4; stroke: #1f77b4"/>
     <use xlink:href="#m8c145e666c" x="135.408778" y="17.28" style="fill: #1f77b4; stroke: #1f77b4"/>
     <use xlink:href="#m8c145e666c" x="175.990597" y="52.369565" style="fill: #1f77b4; stroke: #1f77b4"/>
     <use xlink:href="#m8c145e666c" x="135.408778" y="54.156124" style="fill: #1f77b4; stroke: #1f77b4"/>
     <use xlink:href="#m8c145e666c" x="135.408778" y="176.932356" style="fill: #1f77b4; stroke: #1f77b4"/>
     <use xlink:href="#m8c145e666c" x="175.990597" y="77.575558" style="fill: #1f77b4; stroke: #1f77b4"/>
     <use xlink:href="#m8c145e666c" x="135.408778" y="195.177326" style="fill: #1f77b4; stroke: #1f77b4"/>
     <use xlink:href="#m8c145e666c" x="175.990597" y="152.249886" style="fill: #1f77b4; stroke: #1f77b4"/>
     <use xlink:href="#m8c145e666c" x="135.408778" y="178.78967" style="fill: #1f77b4; stroke: #1f77b4"/>
     <use xlink:href="#m8c145e666c" x="135.408778" y="86.167758" style="fill: #1f77b4; stroke: #1f77b4"/>
     <use xlink:href="#m8c145e666c" x="135.408778" y="112.231752" style="fill: #1f77b4; stroke: #1f77b4"/>
     <use xlink:href="#m8c145e666c" x="135.408778" y="168.453517" style="fill: #1f77b4; stroke: #1f77b4"/>
     <use xlink:href="#m8c145e666c" x="175.990597" y="141.974162" style="fill: #1f77b4; stroke: #1f77b4"/>
     <use xlink:href="#m8c145e666c" x="257.154233" y="41.793052" style="fill: #1f77b4; stroke: #1f77b4"/>
     <use xlink:href="#m8c145e666c" x="257.154233" y="97.779774" style="fill: #1f77b4; stroke: #1f77b4"/>
     <use xlink:href="#m8c145e666c" x="135.408778" y="96.686633" style="fill: #1f77b4; stroke: #1f77b4"/>
     <use xlink:href="#m8c145e666c" x="135.408778" y="119.669905" style="fill: #1f77b4; stroke: #1f77b4"/>
     <use xlink:href="#m8c145e666c" x="135.408778" y="73.260619" style="fill: #1f77b4; stroke: #1f77b4"/>
     <use xlink:href="#m8c145e666c" x="175.990597" y="179.256677" style="fill: #1f77b4; stroke: #1f77b4"/>
     <use xlink:href="#m8c145e666c" x="135.408778" y="182.984136" style="fill: #1f77b4; stroke: #1f77b4"/>
     <use xlink:href="#m8c145e666c" x="94.82696" y="186.92423" style="fill: #1f77b4; stroke: #1f77b4"/>
     <use xlink:href="#m8c145e666c" x="94.82696" y="203.014134" style="fill: #1f77b4; stroke: #1f77b4"/>
     <use xlink:href="#m8c145e666c" x="135.408778" y="113.023928" style="fill: #1f77b4; stroke: #1f77b4"/>
     <use xlink:href="#m8c145e666c" x="175.990597" y="132.220469" style="fill: #1f77b4; stroke: #1f77b4"/>
     <use xlink:href="#m8c145e666c" x="94.82696" y="151.532267" style="fill: #1f77b4; stroke: #1f77b4"/>
     <use xlink:href="#m8c145e666c" x="135.408778" y="142.820204" style="fill: #1f77b4; stroke: #1f77b4"/>
     <use xlink:href="#m8c145e666c" x="135.408778" y="130.029753" style="fill: #1f77b4; stroke: #1f77b4"/>
     <use xlink:href="#m8c145e666c" x="135.408778" y="138.12927" style="fill: #1f77b4; stroke: #1f77b4"/>
     <use xlink:href="#m8c145e666c" x="216.572415" y="25.565987" style="fill: #1f77b4; stroke: #1f77b4"/>
     <use xlink:href="#m8c145e666c" x="94.82696" y="143.70343" style="fill: #1f77b4; stroke: #1f77b4"/>
     <use xlink:href="#m8c145e666c" x="135.408778" y="164.780694" style="fill: #1f77b4; stroke: #1f77b4"/>
     <use xlink:href="#m8c145e666c" x="135.408778" y="147.265397" style="fill: #1f77b4; stroke: #1f77b4"/>
     <use xlink:href="#m8c145e666c" x="135.408778" y="155.335317" style="fill: #1f77b4; stroke: #1f77b4"/>
     <use xlink:href="#m8c145e666c" x="175.990597" y="130.452286" style="fill: #1f77b4; stroke: #1f77b4"/>
    </g>
   </g>
   <g id="line2d_14">
    <path d="M 216.572415 88.22135 
L 175.990597 111.78506 
L 54.245142 182.476189 
L 54.245142 182.476189 
L 94.82696 158.912479 
L 175.990597 111.78506 
L 257.154233 64.65764 
L 135.408778 135.34877 
L 94.82696 158.912479 
L 135.408778 135.34877 
L 175.990597 111.78506 
L 135.408778 135.34877 
L 135.408778 135.34877 
L 135.408778 135.34877 
L 135.408778 135.34877 
L 135.408778 135.34877 
L 135.408778 135.34877 
L 175.990597 111.78506 
L 135.408778 135.34877 
L 94.82696 158.912479 
L 135.408778 135.34877 
L 135.408778 135.34877 
L 135.408778 135.34877 
L 175.990597 111.78506 
L 135.408778 135.34877 
L 135.408778 135.34877 
L 175.990597 111.78506 
L 135.408778 135.34877 
L 175.990597 111.78506 
L 94.82696 158.912479 
L 135.408778 135.34877 
L 94.82696 158.912479 
L 175.990597 111.78506 
L 135.408778 135.34877 
L 135.408778 135.34877 
L 175.990597 111.78506 
L 216.572415 88.22135 
L 216.572415 88.22135 
L 175.990597 111.78506 
L 135.408778 135.34877 
L 175.990597 111.78506 
L 175.990597 111.78506 
L 175.990597 111.78506 
L 175.990597 111.78506 
L 135.408778 135.34877 
L 135.408778 135.34877 
L 175.990597 111.78506 
L 175.990597 111.78506 
L 94.82696 158.912479 
L 175.990597 111.78506 
L 135.408778 135.34877 
L 135.408778 135.34877 
L 135.408778 135.34877 
L 175.990597 111.78506 
L 135.408778 135.34877 
L 135.408778 135.34877 
L 175.990597 111.78506 
L 135.408778 135.34877 
L 175.990597 111.78506 
L 135.408778 135.34877 
L 135.408778 135.34877 
L 135.408778 135.34877 
L 135.408778 135.34877 
L 175.990597 111.78506 
L 257.154233 64.65764 
L 257.154233 64.65764 
L 135.408778 135.34877 
L 135.408778 135.34877 
L 135.408778 135.34877 
L 175.990597 111.78506 
L 135.408778 135.34877 
L 94.82696 158.912479 
L 94.82696 158.912479 
L 135.408778 135.34877 
L 175.990597 111.78506 
L 94.82696 158.912479 
L 135.408778 135.34877 
L 135.408778 135.34877 
L 135.408778 135.34877 
L 216.572415 88.22135 
L 94.82696 158.912479 
L 135.408778 135.34877 
L 135.408778 135.34877 
L 135.408778 135.34877 
L 175.990597 111.78506 
" clip-path="url(#p678232886d)" style="fill: none; stroke: #ff0000; stroke-width: 3; stroke-linecap: round"/>
   </g>
   <g id="patch_3">
    <path d="M 44.099688 228.96 
L 44.099688 7.2 
" style="fill: none; stroke: #cccccc; stroke-width: 1.2; stroke-linejoin: miter; stroke-linecap: square"/>
   </g>
   <g id="patch_4">
    <path d="M 267.299688 228.96 
L 267.299688 7.2 
" style="fill: none; stroke: #cccccc; stroke-width: 1.2; stroke-linejoin: miter; stroke-linecap: square"/>
   </g>
   <g id="patch_5">
    <path d="M 44.099688 228.96 
L 267.299688 228.96 
" style="fill: none; stroke: #cccccc; stroke-width: 1.2; stroke-linejoin: miter; stroke-linecap: square"/>
   </g>
   <g id="patch_6">
    <path d="M 44.099688 7.2 
L 267.299688 7.2 
" style="fill: none; stroke: #cccccc; stroke-width: 1.2; stroke-linejoin: miter; stroke-linecap: square"/>
   </g>
  </g>
 </g>
 <defs>
  <clipPath id="p678232886d">
   <rect x="44.099688" y="7.2" width="223.2" height="221.76"/>
  </clipPath>
 </defs>
</svg>
