<?xml version="1.0" encoding="utf-8" standalone="no"?>
<!DOCTYPE svg PUBLIC "-//W3C//DTD SVG 1.1//EN"
  "http://www.w3.org/Graphics/SVG/1.1/DTD/svg11.dtd">
<svg xmlns:xlink="http://www.w3.org/1999/xlink" width="275.186468pt" height="271.0225pt" viewBox="0 0 275.186468 271.0225" xmlns="http://www.w3.org/2000/svg" version="1.1">
 <metadata>
  <rdf:RDF xmlns:dc="http://purl.org/dc/elements/1.1/" xmlns:cc="http://creativecommons.org/ns#" xmlns:rdf="http://www.w3.org/1999/02/22-rdf-syntax-ns#">
   <cc:Work>
    <dc:type rdf:resource="http://purl.org/dc/dcmitype/StillImage"/>
    <dc:date>2024-02-22T16:17:42.335212</dc:date>
    <dc:format>image/svg+xml</dc:format>
    <dc:creator>
     <cc:Agent>
      <dc:title>Matplotlib v3.7.1, https://matplotlib.org/</dc:title>
     </cc:Agent>
    </dc:creator>
   </cc:Work>
  </rdf:RDF>
 </metadata>
 <defs>
  <style type="text/css">*{stroke-linejoin: round; stroke-linecap: butt}</style>
 </defs>
 <g id="figure_1">
  <g id="patch_1">
   <path d="M 0 271.0225 
L 275.186468 271.0225 
L 275.186468 0 
L 0 0 
L 0 271.0225 
z
" style="fill: none"/>
  </g>
  <g id="axes_1">
   <g id="patch_2">
    <path d="M 44.099688 228.96 
L 267.299688 228.96 
L 267.299688 7.2 
L 44.099688 7.2 
L 44.099688 228.96 
z
" style="fill: none"/>
   </g>
   <g id="matplotlib.axis_1">
    <g id="xtick_1">
     <g id="line2d_1">
      <path d="M 51.960597 228.96 
L 51.960597 7.2 
" clip-path="url(#p092139227a)" style="fill: none; stroke: #cccccc; stroke-width: 0.8; stroke-linecap: round"/>
     </g>
     <g id="text_1">
      <text style="fill: #262626; font: 12px 'Arial', 'DejaVu Sans', 'Liberation Sans', 'Bitstream Vera Sans', sans-serif; text-anchor: middle" x="51.960597" y="242.299375" transform="rotate(-0 51.960597 242.299375)">0.0</text>
     </g>
    </g>
    <g id="xtick_2">
     <g id="line2d_2">
      <path d="M 93.497771 228.96 
L 93.497771 7.2 
" clip-path="url(#p092139227a)" style="fill: none; stroke: #cccccc; stroke-width: 0.8; stroke-linecap: round"/>
     </g>
     <g id="text_2">
      <text style="fill: #262626; font: 12px 'Arial', 'DejaVu Sans', 'Liberation Sans', 'Bitstream Vera Sans', sans-serif; text-anchor: middle" x="93.497771" y="242.299375" transform="rotate(-0 93.497771 242.299375)">0.2</text>
     </g>
    </g>
    <g id="xtick_3">
     <g id="line2d_3">
      <path d="M 135.034946 228.96 
L 135.034946 7.2 
" clip-path="url(#p092139227a)" style="fill: none; stroke: #cccccc; stroke-width: 0.8; stroke-linecap: round"/>
     </g>
     <g id="text_3">
      <text style="fill: #262626; font: 12px 'Arial', 'DejaVu Sans', 'Liberation Sans', 'Bitstream Vera Sans', sans-serif; text-anchor: middle" x="135.034946" y="242.299375" transform="rotate(-0 135.034946 242.299375)">0.4</text>
     </g>
    </g>
    <g id="xtick_4">
     <g id="line2d_4">
      <path d="M 176.57212 228.96 
L 176.57212 7.2 
" clip-path="url(#p092139227a)" style="fill: none; stroke: #cccccc; stroke-width: 0.8; stroke-linecap: round"/>
     </g>
     <g id="text_4">
      <text style="fill: #262626; font: 12px 'Arial', 'DejaVu Sans', 'Liberation Sans', 'Bitstream Vera Sans', sans-serif; text-anchor: middle" x="176.57212" y="242.299375" transform="rotate(-0 176.57212 242.299375)">0.6</text>
     </g>
    </g>
    <g id="xtick_5">
     <g id="line2d_5">
      <path d="M 218.109294 228.96 
L 218.109294 7.2 
" clip-path="url(#p092139227a)" style="fill: none; stroke: #cccccc; stroke-width: 0.8; stroke-linecap: round"/>
     </g>
     <g id="text_5">
      <text style="fill: #262626; font: 12px 'Arial', 'DejaVu Sans', 'Liberation Sans', 'Bitstream Vera Sans', sans-serif; text-anchor: middle" x="218.109294" y="242.299375" transform="rotate(-0 218.109294 242.299375)">0.8</text>
     </g>
    </g>
    <g id="xtick_6">
     <g id="line2d_6">
      <path d="M 259.646468 228.96 
L 259.646468 7.2 
" clip-path="url(#p092139227a)" style="fill: none; stroke: #cccccc; stroke-width: 0.8; stroke-linecap: round"/>
     </g>
     <g id="text_6">
      <text style="fill: #262626; font: 12px 'Arial', 'DejaVu Sans', 'Liberation Sans', 'Bitstream Vera Sans', sans-serif; text-anchor: middle" x="259.646468" y="242.299375" transform="rotate(-0 259.646468 242.299375)">1.0</text>
     </g>
    </g>
    <g id="text_7">
     <text style="fill: #262626; font: 14px 'Arial', 'DejaVu Sans', 'Liberation Sans', 'Bitstream Vera Sans', sans-serif; text-anchor: middle" x="155.699687" y="260.875938" transform="rotate(-0 155.699687 260.875938)">Sugar %</text>
    </g>
   </g>
   <g id="matplotlib.axis_2">
    <g id="ytick_1">
     <g id="line2d_7">
      <path d="M 44.099688 226.86544 
L 267.299688 226.86544 
" clip-path="url(#p092139227a)" style="fill: none; stroke: #cccccc; stroke-width: 0.8; stroke-linecap: round"/>
     </g>
     <g id="text_8">
      <text style="fill: #262626; font: 12px 'Arial', 'DejaVu Sans', 'Liberation Sans', 'Bitstream Vera Sans', sans-serif; text-anchor: end" x="39.349688" y="231.160128" transform="rotate(-0 39.349688 231.160128)">20</text>
     </g>
    </g>
    <g id="ytick_2">
     <g id="line2d_8">
      <path d="M 44.099688 194.209707 
L 267.299688 194.209707 
" clip-path="url(#p092139227a)" style="fill: none; stroke: #cccccc; stroke-width: 0.8; stroke-linecap: round"/>
     </g>
     <g id="text_9">
      <text style="fill: #262626; font: 12px 'Arial', 'DejaVu Sans', 'Liberation Sans', 'Bitstream Vera Sans', sans-serif; text-anchor: end" x="39.349688" y="198.504395" transform="rotate(-0 39.349688 198.504395)">30</text>
     </g>
    </g>
    <g id="ytick_3">
     <g id="line2d_9">
      <path d="M 44.099688 161.553975 
L 267.299688 161.553975 
" clip-path="url(#p092139227a)" style="fill: none; stroke: #cccccc; stroke-width: 0.8; stroke-linecap: round"/>
     </g>
     <g id="text_10">
      <text style="fill: #262626; font: 12px 'Arial', 'DejaVu Sans', 'Liberation Sans', 'Bitstream Vera Sans', sans-serif; text-anchor: end" x="39.349688" y="165.848662" transform="rotate(-0 39.349688 165.848662)">40</text>
     </g>
    </g>
    <g id="ytick_4">
     <g id="line2d_10">
      <path d="M 44.099688 128.898242 
L 267.299688 128.898242 
" clip-path="url(#p092139227a)" style="fill: none; stroke: #cccccc; stroke-width: 0.8; stroke-linecap: round"/>
     </g>
     <g id="text_11">
      <text style="fill: #262626; font: 12px 'Arial', 'DejaVu Sans', 'Liberation Sans', 'Bitstream Vera Sans', sans-serif; text-anchor: end" x="39.349688" y="133.192929" transform="rotate(-0 39.349688 133.192929)">50</text>
     </g>
    </g>
    <g id="ytick_5">
     <g id="line2d_11">
      <path d="M 44.099688 96.242509 
L 267.299688 96.242509 
" clip-path="url(#p092139227a)" style="fill: none; stroke: #cccccc; stroke-width: 0.8; stroke-linecap: round"/>
     </g>
     <g id="text_12">
      <text style="fill: #262626; font: 12px 'Arial', 'DejaVu Sans', 'Liberation Sans', 'Bitstream Vera Sans', sans-serif; text-anchor: end" x="39.349688" y="100.537196" transform="rotate(-0 39.349688 100.537196)">60</text>
     </g>
    </g>
    <g id="ytick_6">
     <g id="line2d_12">
      <path d="M 44.099688 63.586776 
L 267.299688 63.586776 
" clip-path="url(#p092139227a)" style="fill: none; stroke: #cccccc; stroke-width: 0.8; stroke-linecap: round"/>
     </g>
     <g id="text_13">
      <text style="fill: #262626; font: 12px 'Arial', 'DejaVu Sans', 'Liberation Sans', 'Bitstream Vera Sans', sans-serif; text-anchor: end" x="39.349688" y="67.881464" transform="rotate(-0 39.349688 67.881464)">70</text>
     </g>
    </g>
    <g id="ytick_7">
     <g id="line2d_13">
      <path d="M 44.099688 30.931043 
L 267.299688 30.931043 
" clip-path="url(#p092139227a)" style="fill: none; stroke: #cccccc; stroke-width: 0.8; stroke-linecap: round"/>
     </g>
     <g id="text_14">
      <text style="fill: #262626; font: 12px 'Arial', 'DejaVu Sans', 'Liberation Sans', 'Bitstream Vera Sans', sans-serif; text-anchor: end" x="39.349688" y="35.225731" transform="rotate(-0 39.349688 35.225731)">80</text>
     </g>
    </g>
    <g id="text_15">
     <text style="fill: #262626; font: 14px 'Arial', 'DejaVu Sans', 'Liberation Sans', 'Bitstream Vera Sans', sans-serif; text-anchor: middle" x="17.220938" y="118.08" transform="rotate(-90 17.220938 118.08)">Win %</text>
    </g>
   </g>
   <g id="PathCollection_1">
    <defs>
     <path id="ma3a35466cd" d="M 0 3 
C 0.795609 3 1.55874 2.683901 2.12132 2.12132 
C 2.683901 1.55874 3 0.795609 3 0 
C 3 -0.795609 2.683901 -1.55874 2.12132 -2.12132 
C 1.55874 -2.683901 0.795609 -3 0 -3 
C -0.795609 -3 -1.55874 -2.683901 -2.12132 -2.12132 
C -2.683901 -1.55874 -3 -0.795609 -3 0 
C -3 0.795609 -2.683901 1.55874 -2.12132 2.12132 
C -1.55874 2.683901 -0.795609 3 0 3 
z
" style="stroke: #1f77b4"/>
    </defs>
    <g clip-path="url(#p092139227a)">
     <use xlink:href="#ma3a35466cd" x="203.986652" y="73.47583" style="fill: #1f77b4; stroke: #1f77b4"/>
     <use xlink:href="#ma3a35466cd" x="177.402857" y="71.414564" style="fill: #1f77b4; stroke: #1f77b4"/>
     <use xlink:href="#ma3a35466cd" x="54.245142" y="186.825965" style="fill: #1f77b4; stroke: #1f77b4"/>
     <use xlink:href="#ma3a35466cd" x="54.245142" y="141.580079" style="fill: #1f77b4; stroke: #1f77b4"/>
     <use xlink:href="#ma3a35466cd" x="240.124" y="121.252016" style="fill: #1f77b4; stroke: #1f77b4"/>
     <use xlink:href="#ma3a35466cd" x="148.534527" y="127.763305" style="fill: #1f77b4; stroke: #1f77b4"/>
     <use xlink:href="#ma3a35466cd" x="177.402857" y="106.318282" style="fill: #1f77b4; stroke: #1f77b4"/>
     <use xlink:href="#ma3a35466cd" x="116.966273" y="215.704285" style="fill: #1f77b4; stroke: #1f77b4"/>
     <use xlink:href="#ma3a35466cd" x="240.124" y="168.049321" style="fill: #1f77b4; stroke: #1f77b4"/>
     <use xlink:href="#ma3a35466cd" x="177.402857" y="179.456889" style="fill: #1f77b4; stroke: #1f77b4"/>
     <use xlink:href="#ma3a35466cd" x="177.402857" y="164.901066" style="fill: #1f77b4; stroke: #1f77b4"/>
     <use xlink:href="#ma3a35466cd" x="203.986652" y="174.558702" style="fill: #1f77b4; stroke: #1f77b4"/>
     <use xlink:href="#ma3a35466cd" x="61.514147" y="212.08876" style="fill: #1f77b4; stroke: #1f77b4"/>
     <use xlink:href="#ma3a35466cd" x="203.986652" y="154.134344" style="fill: #1f77b4; stroke: #1f77b4"/>
     <use xlink:href="#ma3a35466cd" x="203.986652" y="163.315569" style="fill: #1f77b4; stroke: #1f77b4"/>
     <use xlink:href="#ma3a35466cd" x="78.336703" y="151.466867" style="fill: #1f77b4; stroke: #1f77b4"/>
     <use xlink:href="#ma3a35466cd" x="203.986652" y="164.213768" style="fill: #1f77b4; stroke: #1f77b4"/>
     <use xlink:href="#ma3a35466cd" x="240.124" y="139.402455" style="fill: #1f77b4; stroke: #1f77b4"/>
     <use xlink:href="#ma3a35466cd" x="148.534527" y="105.648209" style="fill: #1f77b4; stroke: #1f77b4"/>
     <use xlink:href="#ma3a35466cd" x="148.534527" y="180.628325" style="fill: #1f77b4; stroke: #1f77b4"/>
     <use xlink:href="#ma3a35466cd" x="148.534527" y="124.285848" style="fill: #1f77b4; stroke: #1f77b4"/>
     <use xlink:href="#ma3a35466cd" x="148.534527" y="154.439035" style="fill: #1f77b4; stroke: #1f77b4"/>
     <use xlink:href="#ma3a35466cd" x="78.336703" y="111.344303" style="fill: #1f77b4; stroke: #1f77b4"/>
     <use xlink:href="#ma3a35466cd" x="141.265524" y="88.782369" style="fill: #1f77b4; stroke: #1f77b4"/>
     <use xlink:href="#ma3a35466cd" x="141.265524" y="107.703035" style="fill: #1f77b4; stroke: #1f77b4"/>
     <use xlink:href="#ma3a35466cd" x="141.265524" y="98.737009" style="fill: #1f77b4; stroke: #1f77b4"/>
     <use xlink:href="#ma3a35466cd" x="71.275384" y="200.324693" style="fill: #1f77b4; stroke: #1f77b4"/>
     <use xlink:href="#ma3a35466cd" x="92.874714" y="105.323252" style="fill: #1f77b4; stroke: #1f77b4"/>
     <use xlink:href="#ma3a35466cd" x="116.966273" y="41.483417" style="fill: #1f77b4; stroke: #1f77b4"/>
     <use xlink:href="#ma3a35466cd" x="97.651489" y="157.016274" style="fill: #1f77b4; stroke: #1f77b4"/>
     <use xlink:href="#ma3a35466cd" x="61.514147" y="164.358919" style="fill: #1f77b4; stroke: #1f77b4"/>
     <use xlink:href="#ma3a35466cd" x="107.412723" y="119.390878" style="fill: #1f77b4; stroke: #1f77b4"/>
     <use xlink:href="#ma3a35466cd" x="223.301438" y="58.802548" style="fill: #1f77b4; stroke: #1f77b4"/>
     <use xlink:href="#ma3a35466cd" x="223.301438" y="74.77272" style="fill: #1f77b4; stroke: #1f77b4"/>
     <use xlink:href="#ma3a35466cd" x="233.062672" y="140.616046" style="fill: #1f77b4; stroke: #1f77b4"/>
     <use xlink:href="#ma3a35466cd" x="114.681728" y="112.361144" style="fill: #1f77b4; stroke: #1f77b4"/>
     <use xlink:href="#ma3a35466cd" x="177.402857" y="53.464949" style="fill: #1f77b4; stroke: #1f77b4"/>
     <use xlink:href="#ma3a35466cd" x="203.986652" y="93.627761" style="fill: #1f77b4; stroke: #1f77b4"/>
     <use xlink:href="#ma3a35466cd" x="252.377456" y="82.026358" style="fill: #1f77b4; stroke: #1f77b4"/>
     <use xlink:href="#ma3a35466cd" x="116.966273" y="135.985339" style="fill: #1f77b4; stroke: #1f77b4"/>
     <use xlink:href="#ma3a35466cd" x="116.966273" y="114.116784" style="fill: #1f77b4; stroke: #1f77b4"/>
     <use xlink:href="#ma3a35466cd" x="228.078213" y="111.414212" style="fill: #1f77b4; stroke: #1f77b4"/>
     <use xlink:href="#ma3a35466cd" x="177.402857" y="61.184487" style="fill: #1f77b4; stroke: #1f77b4"/>
     <use xlink:href="#ma3a35466cd" x="116.966273" y="75.112029" style="fill: #1f77b4; stroke: #1f77b4"/>
     <use xlink:href="#ma3a35466cd" x="92.874714" y="218.88" style="fill: #1f77b4; stroke: #1f77b4"/>
     <use xlink:href="#ma3a35466cd" x="97.651489" y="163.36049" style="fill: #1f77b4; stroke: #1f77b4"/>
     <use xlink:href="#ma3a35466cd" x="148.534527" y="140.991976" style="fill: #1f77b4; stroke: #1f77b4"/>
     <use xlink:href="#ma3a35466cd" x="175.118316" y="65.272504" style="fill: #1f77b4; stroke: #1f77b4"/>
     <use xlink:href="#ma3a35466cd" x="71.275384" y="168.991853" style="fill: #1f77b4; stroke: #1f77b4"/>
     <use xlink:href="#ma3a35466cd" x="177.402857" y="157.421356" style="fill: #1f77b4; stroke: #1f77b4"/>
     <use xlink:href="#ma3a35466cd" x="172.626082" y="170.21257" style="fill: #1f77b4; stroke: #1f77b4"/>
     <use xlink:href="#ma3a35466cd" x="59.021917" y="24.836644" style="fill: #1f77b4; stroke: #1f77b4"/>
     <use xlink:href="#ma3a35466cd" x="201.49443" y="17.28" style="fill: #1f77b4; stroke: #1f77b4"/>
     <use xlink:href="#ma3a35466cd" x="136.281059" y="52.369565" style="fill: #1f77b4; stroke: #1f77b4"/>
     <use xlink:href="#ma3a35466cd" x="257.154233" y="54.156124" style="fill: #1f77b4; stroke: #1f77b4"/>
     <use xlink:href="#ma3a35466cd" x="203.986652" y="176.932356" style="fill: #1f77b4; stroke: #1f77b4"/>
     <use xlink:href="#ma3a35466cd" x="230.570448" y="77.575558" style="fill: #1f77b4; stroke: #1f77b4"/>
     <use xlink:href="#ma3a35466cd" x="203.986652" y="195.177326" style="fill: #1f77b4; stroke: #1f77b4"/>
     <use xlink:href="#ma3a35466cd" x="233.062672" y="152.249886" style="fill: #1f77b4; stroke: #1f77b4"/>
     <use xlink:href="#ma3a35466cd" x="97.651489" y="178.78967" style="fill: #1f77b4; stroke: #1f77b4"/>
     <use xlink:href="#ma3a35466cd" x="247.392997" y="86.167758" style="fill: #1f77b4; stroke: #1f77b4"/>
     <use xlink:href="#ma3a35466cd" x="247.392997" y="112.231752" style="fill: #1f77b4; stroke: #1f77b4"/>
     <use xlink:href="#ma3a35466cd" x="107.412723" y="168.453517" style="fill: #1f77b4; stroke: #1f77b4"/>
     <use xlink:href="#ma3a35466cd" x="107.412723" y="141.974162" style="fill: #1f77b4; stroke: #1f77b4"/>
     <use xlink:href="#ma3a35466cd" x="165.357083" y="41.793052" style="fill: #1f77b4; stroke: #1f77b4"/>
     <use xlink:href="#ma3a35466cd" x="177.402857" y="97.779774" style="fill: #1f77b4; stroke: #1f77b4"/>
     <use xlink:href="#ma3a35466cd" x="66.290922" y="96.686633" style="fill: #1f77b4; stroke: #1f77b4"/>
     <use xlink:href="#ma3a35466cd" x="66.290922" y="119.669905" style="fill: #1f77b4; stroke: #1f77b4"/>
     <use xlink:href="#ma3a35466cd" x="83.321162" y="73.260619" style="fill: #1f77b4; stroke: #1f77b4"/>
     <use xlink:href="#ma3a35466cd" x="170.13386" y="179.256677" style="fill: #1f77b4; stroke: #1f77b4"/>
     <use xlink:href="#ma3a35466cd" x="252.377456" y="182.984136" style="fill: #1f77b4; stroke: #1f77b4"/>
     <use xlink:href="#ma3a35466cd" x="138.773293" y="186.92423" style="fill: #1f77b4; stroke: #1f77b4"/>
     <use xlink:href="#ma3a35466cd" x="85.605708" y="203.014134" style="fill: #1f77b4; stroke: #1f77b4"/>
     <use xlink:href="#ma3a35466cd" x="177.402857" y="113.023928" style="fill: #1f77b4; stroke: #1f77b4"/>
     <use xlink:href="#ma3a35466cd" x="177.402857" y="132.220469" style="fill: #1f77b4; stroke: #1f77b4"/>
     <use xlink:href="#ma3a35466cd" x="116.966273" y="151.532267" style="fill: #1f77b4; stroke: #1f77b4"/>
     <use xlink:href="#ma3a35466cd" x="88.097937" y="142.820204" style="fill: #1f77b4; stroke: #1f77b4"/>
     <use xlink:href="#ma3a35466cd" x="148.534527" y="130.029753" style="fill: #1f77b4; stroke: #1f77b4"/>
     <use xlink:href="#ma3a35466cd" x="116.966273" y="138.12927" style="fill: #1f77b4; stroke: #1f77b4"/>
     <use xlink:href="#ma3a35466cd" x="165.357083" y="25.565987" style="fill: #1f77b4; stroke: #1f77b4"/>
     <use xlink:href="#ma3a35466cd" x="97.651489" y="143.70343" style="fill: #1f77b4; stroke: #1f77b4"/>
     <use xlink:href="#ma3a35466cd" x="71.275384" y="164.780694" style="fill: #1f77b4; stroke: #1f77b4"/>
     <use xlink:href="#ma3a35466cd" x="116.966273" y="147.265397" style="fill: #1f77b4; stroke: #1f77b4"/>
     <use xlink:href="#ma3a35466cd" x="90.590169" y="155.335317" style="fill: #1f77b4; stroke: #1f77b4"/>
     <use xlink:href="#ma3a35466cd" x="233.062672" y="130.452286" style="fill: #1f77b4; stroke: #1f77b4"/>
    </g>
   </g>
   <g id="line2d_14">
    <path d="M 203.986652 117.998706 
L 177.402857 122.982803 
L 54.245142 146.073184 
L 54.245142 146.073184 
L 240.124 111.22345 
L 148.534527 128.395219 
L 177.402857 122.982803 
L 116.966273 134.313833 
L 240.124 111.22345 
L 177.402857 122.982803 
L 177.402857 122.982803 
L 203.986652 117.998706 
L 61.514147 144.710345 
L 203.986652 117.998706 
L 203.986652 117.998706 
L 78.336703 141.556347 
L 203.986652 117.998706 
L 240.124 111.22345 
L 148.534527 128.395219 
L 148.534527 128.395219 
L 148.534527 128.395219 
L 148.534527 128.395219 
L 78.336703 141.556347 
L 141.265524 129.758057 
L 141.265524 129.758057 
L 141.265524 129.758057 
L 71.275384 142.880247 
L 92.874714 138.830669 
L 116.966273 134.313833 
L 97.651489 137.93509 
L 61.514147 144.710345 
L 107.412723 136.104992 
L 223.301438 114.377449 
L 223.301438 114.377449 
L 233.062672 112.547352 
L 114.681728 134.742154 
L 177.402857 122.982803 
L 203.986652 117.998706 
L 252.377456 108.926095 
L 116.966273 134.313833 
L 116.966273 134.313833 
L 228.078213 113.48187 
L 177.402857 122.982803 
L 116.966273 134.313833 
L 92.874714 138.830669 
L 97.651489 137.93509 
L 148.534527 128.395219 
L 175.118316 123.411123 
L 71.275384 142.880247 
L 177.402857 122.982803 
L 172.626082 123.878383 
L 59.021917 145.177604 
L 201.49443 118.465964 
L 136.281059 130.692576 
L 257.154233 108.030515 
L 203.986652 117.998706 
L 230.570448 113.01461 
L 203.986652 117.998706 
L 233.062672 112.547352 
L 97.651489 137.93509 
L 247.392997 109.860613 
L 247.392997 109.860613 
L 107.412723 136.104992 
L 107.412723 136.104992 
L 165.357083 125.24122 
L 177.402857 122.982803 
L 66.290922 143.814765 
L 66.290922 143.814765 
L 83.321162 140.621829 
L 170.13386 124.34564 
L 252.377456 108.926095 
L 138.773293 130.225316 
L 85.605708 140.193508 
L 177.402857 122.982803 
L 177.402857 122.982803 
L 116.966273 134.313833 
L 88.097937 139.72625 
L 148.534527 128.395219 
L 116.966273 134.313833 
L 165.357083 125.24122 
L 97.651489 137.93509 
L 71.275384 142.880247 
L 116.966273 134.313833 
L 90.590169 139.25899 
L 233.062672 112.547352 
" clip-path="url(#p092139227a)" style="fill: none; stroke: #ff0000; stroke-width: 3; stroke-linecap: round"/>
   </g>
   <g id="patch_3">
    <path d="M 44.099688 228.96 
L 44.099688 7.2 
" style="fill: none; stroke: #cccccc; stroke-width: 1.2; stroke-linejoin: miter; stroke-linecap: square"/>
   </g>
   <g id="patch_4">
    <path d="M 267.299688 228.96 
L 267.299688 7.2 
" style="fill: none; stroke: #cccccc; stroke-width: 1.2; stroke-linejoin: miter; stroke-linecap: square"/>
   </g>
   <g id="patch_5">
    <path d="M 44.099688 228.96 
L 267.299688 228.96 
" style="fill: none; stroke: #cccccc; stroke-width: 1.2; stroke-linejoin: miter; stroke-linecap: square"/>
   </g>
   <g id="patch_6">
    <path d="M 44.099688 7.2 
L 267.299688 7.2 
" style="fill: none; stroke: #cccccc; stroke-width: 1.2; stroke-linejoin: miter; stroke-linecap: square"/>
   </g>
  </g>
 </g>
 <defs>
  <clipPath id="p092139227a">
   <rect x="44.099688" y="7.2" width="223.2" height="221.76"/>
  </clipPath>
 </defs>
</svg>
